<?xml version="1.0" encoding="UTF-8" standalone="no"?><!-- Generator: Gravit.io --><svg xmlns="http://www.w3.org/2000/svg" xmlns:xlink="http://www.w3.org/1999/xlink" style="isolation:isolate" viewBox="0 0 1000 700" width="1000pt" height="700pt"><defs><clipPath id="_clipPath_0hbPZtMJfgbTJ7T8vLvPKYycIgU71ylW"><rect width="1000" height="700"/></clipPath></defs><g clip-path="url(#_clipPath_0hbPZtMJfgbTJ7T8vLvPKYycIgU71ylW)"><g><path d=" M 145 424.665 L 223.667 334.999 L 223.667 334.999 L 181.667 419.332 L 145 425.332 L 140.667 458.665 L 244.667 407.665 L 181.334 419.332 M 141.334 459.332 L 184 456.332 L 245.667 407.665 L 224 335.332 L 363 326.665 L 296.334 296.665 L 224.334 334.332 M 245.667 405.999 L 362.334 326.999 M 246.334 406.665 L 339.334 370.332 L 362.667 327.999 M 296.001 296.665 L 389.667 293.999 L 362.001 327.332 M 362.445 326.721 L 398.889 344.721 L 357.111 359.165 L 363.111 328.499 M 398.834 344.707 L 389.834 293.957 L 409.084 319.207 L 399.084 344.707 L 459.334 385.707 L 432.084 425.957 L 371.334 427.457 L 402.084 441.457 L 432.584 425.707 L 353.834 400.207 L 457.834 385.707 L 356.834 358.957 L 353.334 399.957 L 370.834 427.207 L 326.084 426.957 L 353.584 400.207 L 320.834 399.957 L 326.084 426.457 L 294.084 470.207 L 301.834 424.707 L 324.084 426.957 M 320.334 399.957 L 301.334 424.707 L 285.834 456.207 L 292.584 471.207 L 293.584 470.457 M 285.584 455.707 L 269.084 457.207 L 268.084 476.957 L 292.084 472.207 L 270.584 458.207 M 389.084 293.957 L 430.584 286.207 L 459.834 384.707 L 409.084 319.207 M 430.334 285.707 L 575.584 245.457 L 597.834 314.207 L 533.584 323.707 L 573.834 246.957 L 660.584 234.957 L 598.334 314.707 L 601.084 367.207 L 533.334 323.957 L 527.084 382.707 L 601.084 367.457 L 616.084 363.207 L 598.834 314.457 L 655.834 378.457 L 630.334 407.457 L 635.084 421.207 L 638.584 399.207 M 445.584 332.707 L 571.584 246.957 M 445.834 332.707 L 534.084 323.707 M 445.584 332.457 L 526.084 383.207 L 459.834 385.207 M 600.334 345.707 L 614.834 361.957 M 599.084 313.707 L 719.084 250.707 L 661.334 234.707 M 599.084 314.457 L 652.084 340.207 L 656.084 378.707 L 635.334 421.207 M 635.334 420.707 L 676.334 390.457 L 656.334 377.207 L 685.834 375.457 L 652.334 340.457 M 685.834 375.457 L 676.584 390.457 M 718.584 250.707 M 652.334 339.207 L 718.084 251.957 M 718.584 250.707 L 787.834 279.457 L 700.084 277.707 M 699.334 278.707 L 749.584 303.207 L 748.084 327.457 L 724.334 290.957 L 684.084 297.457 L 711.084 339.707 L 652.084 340.207 M 685.584 298.207 L 747.834 327.207 L 712.084 339.707 L 736.084 354.707 L 747.834 327.957 M 788.584 279.707 L 834.334 293.707 L 791.084 301.457 L 798.334 312.207 L 834.084 294.207 M 788.084 280.207 L 791.084 300.707 M 749.834 302.707 L 787.584 282.707 M 749.834 302.707 L 791.834 301.707 M 750.334 303.207 L 797.584 311.707 M 750.334 303.457 L 795.584 329.707 L 748.834 327.707 L 788.834 349.207 L 796.334 329.957 L 798.084 312.207 M 736.134 354.132 L 749.734 368.332 L 760.134 358.532 L 768.134 338.732 L 736.734 354.332 L 758.734 359.332 M 749.934 369.132 L 766.334 390.532 L 759.734 358.932 L 786.134 395.132 L 766.734 390.932 M 760.934 358.532 L 788.534 349.532 L 786.534 394.532 L 792.534 390.732 L 788.534 355.532 M 615.834 361.957 L 653.584 376.707" fill-rule="evenodd" fill="none" vector-effect="non-scaling-stroke" stroke-width="2" stroke="rgb(0,0,0)" stroke-linejoin="round" stroke-linecap="round" stroke-miterlimit="4"/></g></g></svg>